<?xml version="1.0" standalone="no"?><!DOCTYPE svg PUBLIC "-//W3C//DTD SVG 1.1//EN"
        "http://www.w3.org/Graphics/SVG/1.1/DTD/svg11.dtd">
<svg class="icon" width="128px" height="128.00px" viewBox="0 0 1024 1024" version="1.1"
     xmlns="http://www.w3.org/2000/svg">
    <path d="M374.64243539 24.24154992h225.62022215v52.06620513H374.64243539z" fill="#333333"/>
    <path d="M461.41944388 58.95235333h52.06620515v121.48781193h-52.06620515zM530.84105072 614.32520788l-3.47108037-260.33102558h-69.4216068l1.73554017 194.38049906-159.66969567-107.60349056-39.91742391 57.27282566 216.94252126 145.78537428z"
          fill="#333333"/>
    <path d="M721.75046945 529.2837395L475.30376526 944.07784024h494.62894854L721.75046945 529.2837395z m0 111.07457092l156.19861536 260.33102557H565.5518541l156.19861535-260.33102557z"/>
    <path d="M473.5682251 892.01163509H461.41944388C270.51002517 892.01163509 114.3114098 735.81301978 114.3114098 544.90360103s156.19861531-347.1080341 347.10803408-347.10803407 347.1080341 156.19861531 347.10803407 347.10803407c0 22.56202223-1.73554016 45.12404443-6.94216068 65.95052647l36.44634359 62.47944616c13.88432135-39.91742393 20.82648205-83.30592819 20.82648206-128.42997263C860.59368308 324.4899994 681.83304551 145.72936186 461.41944388 145.72936186S62.2452047 324.4899994 62.2452047 544.90360103c0 213.47144095 168.34739651 388.76099815 380.08329733 399.17423921l31.23972307-52.06620515z"
          fill="#333333"/>
    <path d="M704.39506774 701.10221637h34.71080343v121.48781196h-34.71080343z"/>
    <path d="M721.75046945 857.3008317m-17.35540171 0a17.35540171 17.35540171 0 1 0 34.71080343 0 17.35540171 17.35540171 0 1 0-34.71080343 0Z"/>
</svg>
