<?xml version="1.0" standalone="no"?><!DOCTYPE svg PUBLIC "-//W3C//DTD SVG 1.1//EN" "http://www.w3.org/Graphics/SVG/1.1/DTD/svg11.dtd"><svg class="icon" width="128px" height="62.65px" viewBox="0 0 2092 1024" version="1.1" xmlns="http://www.w3.org/2000/svg"><path fill="#000000" d="M1908.862695 173.536675v742.666893h116.855518A66.017803 66.017803 0 0 0 2092.270212 850.920285V107.785971h-116.855517a66.373934 66.373934 0 0 0-66.552 65.750704z m-641.258561 741.197852v-181.804927a225.430986 225.430986 0 0 1-189.639811-186.701729h-184.520426a407.324946 407.324946 0 0 0 374.160237 368.551172z m34.722782 109.065149c11.796843 0 23.148521-0.48968 34.722782-1.424524v-107.7074a236.782665 236.782665 0 0 1-69.445564 0v107.7074c11.351679 1.046135 23.148521 1.624848 34.722782 1.624848z m-519.728824-511.938456c0 11.396195 0.445164 22.881423 1.558074 34.188586h109.287731a221.001606 221.001606 0 0 1 0-68.510721h-109.287731c-1.11291 11.618777-1.558074 22.992714-1.558074 34.522459z m928.611843-34.322135a221.001606 221.001606 0 0 1 0 68.510721h109.287731c1.11291-11.307162 1.558074-22.79239 1.558074-34.188586s-0.445164-22.92594-1.558074-34.322135h-109.287731z m-41.40024 214.05705L1552.954177 634.481609a51.861591 51.861591 0 0 0-73.897203 17.806555 228.101969 228.101969 0 0 1-142.007276 80.530145v181.804927a410.641416 410.641416 0 0 0 332.759997-222.804519z m-190.752721-320.250892a51.728042 51.728042 0 0 0 73.897203 17.806555l116.855518-57.114525A410.708191 410.708191 0 0 0 1337.049698 109.143721V1.436321a427.023447 427.023447 0 0 0-69.445564 0v107.7074a407.324946 407.324946 0 0 0-374.160237 368.439881h184.520426a225.364212 225.364212 0 0 1 189.639811-186.634955V109.143721a236.782665 236.782665 0 0 1 69.445564 0v181.804926a228.391326 228.391326 0 0 1 142.007276 80.619178zM432.031541 107.563389H66.551999A66.373934 66.373934 0 0 0 0 173.314093v742.666893h116.855517a66.017803 66.017803 0 0 0 66.551999-65.283282V288.477988h248.624025a115.5868 115.5868 0 1 1 0 231.129084h-107.284494a58.961955 58.961955 0 0 0-53.642247 40.064748l-39.619585 140.515977h200.546326a296.278817 296.278817 0 1 0 0-592.401826z" /></svg>